<svg xmlns="http://www.w3.org/2000/svg" width="40" height="40"><g fill="none" fill-rule="evenodd"><circle cx="20" cy="20" r="20" fill="#FFF"/><path fill="#000" fill-rule="nonzero" d="M20 0a20 20 0 1020 19.99A19.99 19.99 0 0020 0m.09 9.294a5.477 5.477 0 11-5.576 5.326 5.442 5.442 0 015.575-5.326m5.116 11.375c.495.206.852.65.947 1.177.123.652-.18 1.31-.755 1.642l.018.01a10.36 10.36 0 01-2.707 1.18l-.506.177.167.192c.048.055.09.101.135.146l2.663 2.663a1.58 1.58 0 01-.657 2.832.346.346 0 00-.125.07h-.408a3.87 3.87 0 01-1.607-1.189c-.71-.719-1.429-1.42-2.139-2.148-.195-.195-.32-.195-.515 0-.701.719-1.42 1.429-2.14 2.14-.42.511-.968.903-1.588 1.135h-.355l-.293-.124a1.553 1.553 0 01-.64-2.619c.888-.95 1.865-1.873 2.806-2.805.089-.088.169-.186.293-.328-.195-.062-.329-.098-.453-.151-.888-.382-1.775-.71-2.663-1.163a1.51 1.51 0 01-.621-2.193 1.589 1.589 0 012.245-.488 6.986 6.986 0 007.395 0 1.58 1.58 0 011.503-.156zm-5.199-8.361A2.564 2.564 0 0120 17.436a2.584 2.584 0 01-2.564-2.574 2.564 2.564 0 012.57-2.554z"/></g></svg>