<svg width="40" height="40" xmlns="http://www.w3.org/2000/svg"><g fill="none"><circle fill="#000" cx="20" cy="20" r="20"/><path d="M28.017 12.608a5.5 5.5 0 01-2.406-3.606A5.51 5.51 0 0125.515 8h-3.942l-.005 15.844a3.32 3.32 0 01-3.31 3.198 3.332 3.332 0 01-3.315-3.324 3.323 3.323 0 013.315-3.324c.341 0 .668.055.98.156v-4.034a7.006 7.006 0 00-.98-.07c-4.003 0-7.258 3.263-7.258 7.277a7.274 7.274 0 003.099 5.958A7.195 7.195 0 0018.258 31c4.003 0 7.257-3.263 7.257-7.277v-8.038A9.358 9.358 0 0031 17.453v-3.954a5.42 5.42 0 01-2.983-.89z" fill="#FFF"/></g></svg>